<svg
        width="100%"
        height="100%"
        viewBox="0 0 169 28"
        fill="currentColor"
        xmlns="http://www.w3.org/2000/svg">
    <path d="M25.4053 14.0205C24.6477 14.0205 23.9775 14.3893 23.5731 14.9516L21.9256 14.674C21.9277 14.6138 21.9304 14.5537 21.9304 14.493C21.9304 13.782 21.7853 13.1035 21.5242 12.4827L24.3145 10.8458C24.69 11.1238 25.158 11.2893 25.6653 11.2893C26.8975 11.2893 27.9 10.3146 27.9 9.11646C27.9 7.91845 26.8975 6.94383 25.6653 6.94383C24.4331 6.94383 23.4307 7.91845 23.4307 9.11646C23.4307 9.24376 23.4426 9.36828 23.4643 9.48962L20.6879 11.1183C19.8455 10.1198 18.6381 9.42323 17.2658 9.22295V5.88995C18.2897 5.5569 19.0303 4.61618 19.0303 3.5099C19.0303 2.12598 17.8723 1 16.449 1C15.0258 1 13.8679 2.1259 13.8679 3.5099C13.8679 4.61618 14.6082 5.55682 15.6322 5.88995V9.22295C13.7622 9.49581 12.1995 10.691 11.4482 12.315L6.33554 10.7882C6.35089 10.6653 6.35971 10.5405 6.35971 10.4137C6.35971 8.70884 4.93332 7.32183 3.17998 7.32183C1.42647 7.32183 0 8.70884 0 10.4137C0 12.1184 1.42647 13.5053 3.18006 13.5053C4.21898 13.5053 5.1429 13.0183 5.72354 12.2669L11.0096 13.8455C10.9831 14.058 10.9677 14.2737 10.9677 14.493C10.9677 15.9224 11.5507 17.2212 12.4962 18.1792L10.1933 20.5622C9.85725 20.4163 9.48538 20.3345 9.09407 20.3345C7.60111 20.3345 6.38667 21.5154 6.38667 22.9669C6.38667 24.4182 7.60111 25.599 9.09407 25.599C10.5868 25.599 11.8013 24.4182 11.8013 22.9669C11.8013 22.4732 11.6606 22.0111 11.4165 21.6159L13.7956 19.154C14.5824 19.5791 15.4869 19.8222 16.4491 19.8222C17.3683 19.8222 18.2348 19.6 18.9966 19.2095L21.3704 22.7189C20.7921 23.2791 20.4335 24.0537 20.4335 24.9082C20.4335 26.613 21.86 28 23.6135 28C25.3669 28 26.7935 26.6131 26.7935 24.9082C26.7935 23.2034 25.3669 21.8165 23.6135 21.8165C23.3278 21.8165 23.0509 21.8539 22.7873 21.923L20.3146 18.2674C20.899 17.7017 21.352 17.0085 21.6279 16.2355L23.1935 16.4992C23.347 17.5528 24.2802 18.3658 25.4054 18.3658C26.6377 18.3658 27.6402 17.3911 27.6402 16.193C27.64 14.9952 26.6375 14.0205 25.4053 14.0205ZM12.6012 14.493C12.6012 12.4301 14.3273 10.7518 16.4489 10.7518C18.5707 10.7518 20.2968 12.4301 20.2968 14.493C20.2968 16.5558 18.5706 18.234 16.4489 18.234C14.3273 18.234 12.6012 16.5558 12.6012 14.493Z"
          fill="#C4750C"/>
    <path d="M38.6 24V7.1H40.42V14.64H45.542V7.1H47.362V24H45.542V16.2H40.42V24H38.6ZM58.9348 19.32H60.7548V20.75C60.7548 21.8767 60.4082 22.7693 59.7148 23.428C59.0215 24.0693 57.9468 24.39 56.4908 24.39C55.0348 24.39 53.9515 24.0693 53.2408 23.428C52.5302 22.7693 52.1748 21.8767 52.1748 20.75V10.35C52.1748 9.22333 52.5215 8.33933 53.2148 7.698C53.9082 7.03933 54.9828 6.71 56.4388 6.71C57.8948 6.71 58.9782 7.03933 59.6888 7.698C60.3995 8.33933 60.7548 9.22333 60.7548 10.35V16.07H53.9948V20.75C53.9948 21.3913 54.1942 21.9027 54.5928 22.284C55.0088 22.648 55.6415 22.83 56.4908 22.83C57.3228 22.83 57.9382 22.648 58.3368 22.284C58.7355 21.9027 58.9348 21.3913 58.9348 20.75V19.32ZM53.9948 14.51H58.9348V10.35C58.9348 9.69133 58.7268 9.18 58.3108 8.816C57.9122 8.452 57.2882 8.27 56.4388 8.27C55.6068 8.27 54.9915 8.452 54.5928 8.816C54.1942 9.18 53.9948 9.69133 53.9948 10.35V14.51ZM65.5648 7.1H67.3848V22.44H72.1428V24H65.5648V7.1ZM75.2641 7.1H77.0841V22.44H81.8421V24H75.2641V7.1ZM93.4133 20.75C93.4133 21.8767 93.0493 22.7693 92.3213 23.428C91.6106 24.0693 90.5099 24.39 89.0193 24.39C87.5286 24.39 86.4106 24.0693 85.6653 23.428C84.9373 22.7693 84.5733 21.8767 84.5733 20.75V10.35C84.5733 9.22333 84.9286 8.33933 85.6393 7.698C86.3673 7.03933 87.4766 6.71 88.9673 6.71C90.4579 6.71 91.5673 7.03933 92.2953 7.698C93.0406 8.33933 93.4133 9.22333 93.4133 10.35V20.75ZM91.5933 10.35C91.5933 9.69133 91.3766 9.18 90.9433 8.816C90.5099 8.452 89.8513 8.27 88.9673 8.27C88.1006 8.27 87.4506 8.452 87.0173 8.816C86.6013 9.18 86.3933 9.69133 86.3933 10.35V20.75C86.3933 21.3913 86.6099 21.9027 87.0433 22.284C87.4766 22.648 88.1353 22.83 89.0193 22.83C89.8859 22.83 90.5273 22.648 90.9433 22.284C91.3766 21.9027 91.5933 21.3913 91.5933 20.75V10.35ZM105.301 24L102.779 7.1H104.599L106.731 21.4L109.617 7.1H111.333L114.245 21.4L116.377 7.1H118.197L115.675 24H113.231L110.475 10.48L107.745 24H105.301ZM130.407 20.75C130.407 21.8767 130.043 22.7693 129.315 23.428C128.605 24.0693 127.504 24.39 126.013 24.39C124.523 24.39 123.405 24.0693 122.659 23.428C121.931 22.7693 121.567 21.8767 121.567 20.75V10.35C121.567 9.22333 121.923 8.33933 122.633 7.698C123.361 7.03933 124.471 6.71 125.961 6.71C127.452 6.71 128.561 7.03933 129.289 7.698C130.035 8.33933 130.407 9.22333 130.407 10.35V20.75ZM128.587 10.35C128.587 9.69133 128.371 9.18 127.937 8.816C127.504 8.452 126.845 8.27 125.961 8.27C125.095 8.27 124.445 8.452 124.011 8.816C123.595 9.18 123.387 9.69133 123.387 10.35V20.75C123.387 21.3913 123.604 21.9027 124.037 22.284C124.471 22.648 125.129 22.83 126.013 22.83C126.88 22.83 127.521 22.648 127.937 22.284C128.371 21.9027 128.587 21.3913 128.587 20.75V10.35ZM135.211 24V7.1H135.991L136.745 9.024C136.988 8.36533 137.317 7.81933 137.733 7.386C138.149 6.93533 138.704 6.71 139.397 6.71C140.403 6.71 141.165 6.996 141.685 7.568C142.223 8.12267 142.491 8.96333 142.491 10.09V11.78H140.749V9.986C140.749 9.48333 140.637 9.076 140.411 8.764C140.186 8.43467 139.822 8.27 139.319 8.27C138.99 8.27 138.643 8.4 138.279 8.66C137.933 8.92 137.638 9.336 137.395 9.908C137.153 10.4627 137.031 11.1993 137.031 12.118V24H135.211ZM145.621 7.1H147.441V22.44H152.199V24H145.621V7.1ZM155.321 24V7.1H159.507C160.893 7.1 161.925 7.42933 162.601 8.088C163.294 8.72933 163.641 9.61333 163.641 10.74V20.36C163.641 21.4867 163.303 22.3793 162.627 23.038C161.951 23.6793 160.911 24 159.507 24H155.321ZM161.821 10.74C161.821 10.0987 161.621 9.596 161.223 9.232C160.841 8.85067 160.269 8.66 159.507 8.66H157.141V22.44H159.507C160.287 22.44 160.867 22.258 161.249 21.894C161.63 21.5127 161.821 21.0013 161.821 20.36V10.74Z"/>
</svg>
