<svg
        aria-labelledby="logo"
        role="img"
        width="100%"
        height="100%"
        viewBox="0 0 63 37"
        fill="currentColor"
        xmlns="http://www.w3.org/2000/svg"
>
    <title id="logo">"Hello World" social network</title>
    <path d="M30.7812 0.333892C20.3389 -0.845277 5.85832 0.737716 1.3576 10.9787C-0.528072 15.2431 -0.937228 21.3005 3.35001 24.6926C8.38441 28.6663 15.0198 27.8748 21.2461 28.1009C21.3884 30.7017 22.2423 33.4637 23.114 35.8867C23.4164 36.7428 24.5194 36.7751 25.0708 36.1128C26.174 34.7882 26.6541 33.0759 27.1166 31.4929C27.3479 30.6852 27.9881 29.4253 27.9349 28.4723C28.0595 28.4723 28.1662 28.4723 28.3087 28.4238C36.6697 25.6293 48.624 28.3593 50.0471 17.6821C51.4169 7.52198 40.4055 1.41598 30.7812 0.333892ZM46.8806 20.945C44.2656 26.3078 32.916 24.6602 27.7215 26.4531C27.17 26.647 26.9565 27.0993 26.9745 27.5194C25.6757 27.7294 25.5334 29.1991 25.2665 30.1846C25.0175 31.0731 24.7862 32.0099 24.4482 32.9143C23.879 30.8468 23.3986 28.7469 22.4736 26.8408C22.2601 26.4047 21.6731 26.4854 21.3884 26.7923C17.7772 26.0332 14.2727 25.9847 10.6081 25.5163C-0.261231 24.1596 1.33981 13.2884 6.392 7.78026C12.1735 1.48059 23.9145 1.30291 32.0445 2.54669C41.277 3.96832 51.5238 11.4147 46.8806 20.945Z"/>
    <path d="M16.0694 10.4748C15.7848 9.77345 14.753 9.56141 14.2905 10.2628C13.401 11.6166 13.6501 13.7696 13.5611 15.2865C13.5077 16.1183 13.4366 17.0154 13.3832 17.9125C12.476 18.043 11.5865 18.1082 10.6614 18.1735C10.6614 17.5047 10.6437 16.836 10.6437 16.1673C10.6437 15.0744 10.697 13.9653 10.7504 12.8725C10.7682 12.3995 10.8215 11.9265 10.9105 11.4535C11.0528 10.7521 11.2307 10.9478 10.7504 11.1599C11.3552 10.8826 11.3908 9.92025 10.7504 9.64297C6.96125 8.07714 8.5445 20.6201 8.66903 22.2022C8.75798 23.344 10.5369 23.344 10.5903 22.2022C10.6437 21.3702 10.6437 20.5547 10.6437 19.723C11.5331 19.7719 12.4404 19.7882 13.3476 19.7556C13.3832 20.6527 13.5077 21.5172 13.7924 22.3164C13.8991 22.6261 14.1837 22.9523 14.5573 23.0177C14.9309 23.0828 15.34 23.0667 15.6425 22.8546C15.8559 22.7078 15.8737 22.4958 15.7848 22.3488C15.9805 21.7129 15.8382 21.0766 15.8026 20.3591C15.767 18.9727 15.8204 17.57 15.8915 16.1836C16.0338 14.4709 16.7454 12.1059 16.0694 10.4748Z"/>
    <path d="M22.2601 10.6379C22.2423 10.6053 22.2068 10.5727 22.189 10.54C21.8865 10.1649 21.5485 10.067 21.0682 10.116C20.499 10.1812 19.9119 10.1975 19.3249 10.2301C19.0402 10.0833 18.6311 10.1649 18.4888 10.4585C18.2219 10.6705 18.1686 11.0294 18.2931 11.3066C17.6527 14.9766 17.5993 18.8259 17.5637 22.5119C17.5637 23.1154 18.0796 23.4743 18.6667 23.5232C20.1788 23.67 22.189 23.409 22.0644 21.6149C22.0289 21.0605 21.4062 20.6688 20.837 20.9624C20.41 21.1908 20.1254 21.3539 19.8052 21.4354C19.823 20.783 19.8408 20.1306 19.8763 19.4782C20.1254 19.5108 20.3744 19.5271 20.6057 19.5597C21.1038 19.6249 21.4418 19.5108 21.7442 19.1356L21.762 19.1192C21.9399 18.9071 21.9399 18.4504 21.762 18.2385L21.7442 18.2222C21.4418 17.8634 21.1038 17.7329 20.6057 17.7981C20.3922 17.8308 20.161 17.8471 19.9297 17.8634C20.0009 15.8246 20.0187 13.7857 19.7696 11.7958C20.1965 11.8121 20.6413 11.8284 21.0504 11.8937C21.5308 11.9589 21.8865 11.8447 22.1712 11.4696C22.189 11.437 22.2245 11.4043 22.2423 11.3717C22.4024 11.1925 22.4024 10.8336 22.2601 10.6379Z"
    />
    <path d="M27.6325 20.7506C27.17 20.6201 26.6897 20.5548 26.2094 20.4733C26.1384 17.3255 25.9071 14.1286 25.4978 11.0131C25.3911 10.1649 24.1636 10.1649 24.0569 11.0131C23.6477 14.422 23.9501 17.9288 23.9501 21.3378C23.9501 21.8106 24.3059 22.2184 24.7862 22.3489C25.7469 22.5935 26.6363 22.7892 27.6147 22.5284C28.6109 22.2675 28.5755 21.0117 27.6325 20.7506Z"
    />
    <path d="M32.6671 21.4519C32.4356 21.5499 32.2401 21.6803 32.0444 21.7618C32.0622 18.2061 32.1688 14.6014 31.2439 11.1272C31.066 10.4422 29.8917 10.589 29.9097 11.2903C30.0341 15.1397 29.8385 18.9564 29.7672 22.8057C29.7672 23.295 30.123 23.6537 30.6033 23.8168C32.0265 24.3061 33.3607 24.029 34.0013 22.6751C34.3925 21.8597 33.6099 21.0441 32.6671 21.4519Z"
    />
    <path d="M39.2668 11.6818C38.573 10.8173 37.1321 11.3556 37.1677 12.2037C37.1321 12.2037 37.1143 12.2037 37.0608 12.2037C36.5627 12.1874 36.3314 12.5952 36.1179 12.9214C35.4243 14.0142 35.0861 15.4006 34.7659 16.6076C34.25 18.5486 33.6452 21.7944 35.9222 23.0013C38.5551 24.4042 40.2984 21.2397 40.5831 19.3966C40.9568 17.1133 40.8323 13.6228 39.2668 11.6818ZM38.2172 19.9024C38.1105 20.3102 37.3813 21.7618 36.8297 20.9626C35.9402 19.6577 36.8476 17.0156 37.1855 15.6616C37.3634 14.9603 37.5592 14.2589 37.7725 13.5575C37.7725 13.5412 37.7725 13.5249 37.7905 13.5086C38.2886 14.6503 38.4131 16.0368 38.4665 17.1785C38.5197 18.0758 38.4487 19.0053 38.2172 19.9024Z"
    />
    <path d="M37.7068 32.3649C37.7068 32.3649 37.7747 32.4745 37.9106 32.6937L38.1489 33.0716L38.4577 31.775C38.5406 31.3693 38.6364 31.017 38.7452 30.7183C38.854 30.4195 39.0116 30.0734 39.2181 29.68C39.2803 29.5627 39.3592 29.4681 39.4549 29.3963C39.5561 29.3159 39.6642 29.2641 39.7792 29.2407C39.9373 29.2086 40.0958 29.225 40.2548 29.29C40.4209 29.3534 40.5606 29.4634 40.6738 29.6199C40.7091 29.6725 40.764 29.7436 40.8384 29.8332C40.9711 30.0082 41.071 30.1562 41.1379 30.2772C41.2031 30.391 41.2626 30.5435 41.3162 30.7345C41.3923 31.0182 41.5097 31.3794 41.6685 31.8183L41.8723 32.4275C41.9922 32.2685 42.0798 32.1161 42.135 31.9703C42.1885 31.8174 42.2215 31.6574 42.2339 31.4903C42.2708 31.2062 42.3038 30.8592 42.333 30.4495L42.4239 29.4215C42.4597 29.0702 42.5397 28.7773 42.664 28.5426C42.7954 28.3066 43.0052 28.1294 43.2932 28.011C43.3473 27.9851 43.4102 27.9648 43.4821 27.9502C43.5396 27.9386 43.5817 27.9412 43.6084 27.9582C43.6351 27.9752 43.6662 28.0101 43.7015 28.0627C43.7351 28.1082 43.7777 28.1594 43.8291 28.2163C43.9409 28.3357 44.0097 28.4488 44.0355 28.5557C44.0717 28.7054 44.0296 28.8747 43.9094 29.0637C43.7274 29.3399 43.6044 29.6267 43.5405 29.9238C43.4837 30.2195 43.4314 30.6115 43.3835 31.0998C43.3654 31.3054 43.343 31.6652 43.3163 32.1791C43.2911 32.9171 43.2516 33.456 43.1981 33.7959C43.1655 34.0044 43.1264 34.1545 43.0806 34.246C43.0404 34.329 42.9771 34.3792 42.8909 34.3967C42.7974 34.4157 42.6247 34.3872 42.3726 34.3113C41.9579 34.1861 41.5893 33.9245 41.267 33.5263C40.9429 33.121 40.7007 32.6804 40.5405 32.2044L40.4729 31.9714C40.3511 31.5923 40.2414 31.2631 40.1438 30.9838C40.0342 31.1856 39.9442 31.4058 39.8737 31.6444C39.8103 31.8816 39.7375 32.1731 39.6552 32.5189C39.5913 32.816 39.5491 33.0003 39.5287 33.0717C39.4564 33.3033 39.3843 33.7068 39.3122 34.2823C39.2387 34.8207 39.1816 35.1613 39.1407 35.3042C39.0309 35.349 38.9257 35.3815 38.825 35.402C38.6095 35.4458 38.4215 35.4166 38.2611 35.3146C38.1008 35.2126 37.943 35.0277 37.7879 34.7601C37.4934 34.2591 37.1878 33.7117 36.8709 33.118C36.5613 32.5228 36.3075 31.9873 36.1096 31.5115C36.0536 31.3734 35.9771 31.2281 35.88 31.0759C35.7829 30.9236 35.722 30.8275 35.6973 30.7877L35.5146 30.4995C35.4051 30.3273 35.34 30.1984 35.3194 30.1129C35.3004 30.0345 35.3084 29.9581 35.3432 29.8837C35.3852 29.8079 35.4596 29.7105 35.5666 29.5915C36.1041 29.6319 36.4977 29.9035 36.7473 30.4061C36.8599 30.6226 37.0216 30.9487 37.2324 31.3844L37.7068 32.3649ZM48.4339 33.5065C48.2438 33.6872 48.005 33.8067 47.7176 33.8651C47.4013 33.9293 47.077 33.9129 46.7444 33.816C46.4174 33.7104 46.1314 33.5254 45.8866 33.2611C45.6418 32.9967 45.4873 32.6692 45.423 32.2784L45.4149 32.0108C45.396 31.7455 45.3863 31.5493 45.3858 31.4222C45.3868 31.1454 45.4714 30.9338 45.6396 30.7874C45.8078 30.6411 46.0458 30.503 46.3537 30.3732C46.5518 30.2881 46.7514 30.2251 46.9527 30.1842C47.5851 30.0558 48.1677 30.158 48.7005 30.491C48.9856 30.6724 49.1677 30.9271 49.247 31.255C49.3245 31.5757 49.2894 31.9456 49.1418 32.3644C48.9703 32.8404 48.7343 33.2211 48.4339 33.5065ZM46.8257 30.7821C46.7779 31.0834 46.7392 31.454 46.7098 31.8937L46.6795 32.2363L46.7627 32.2531C46.7747 32.303 46.7937 32.3814 46.8195 32.4883C46.8508 32.5867 46.8858 32.6693 46.9246 32.7362C47.0571 32.9411 47.1796 33.0583 47.2923 33.0878C47.3406 33.1004 47.3991 33.0773 47.4678 33.0185C47.5437 32.9582 47.6071 32.893 47.658 32.8228C47.7379 32.7168 47.8566 32.5058 48.0139 32.1896C48.1344 31.9707 48.1637 31.733 48.1017 31.4764C48.0483 31.2554 47.9354 31.0689 47.763 30.917C47.5978 30.7636 47.396 30.6775 47.1577 30.6586C47.1345 30.6558 47.0941 30.6603 47.0366 30.6719C46.9 30.6997 46.8297 30.7364 46.8257 30.7821ZM50.7391 32.6569C50.7293 32.5542 50.7012 32.4066 50.6547 32.2141L50.4915 31.5855L49.9127 29.7513L49.8632 29.5931C49.7719 29.2153 49.8879 28.9936 50.2113 28.9279C50.2904 28.9118 50.3656 28.9265 50.4368 28.9718C50.5153 29.0157 50.5797 29.0325 50.63 29.0223C50.7378 29.0004 50.82 28.9351 50.8767 28.8264C50.9388 28.7091 51.0045 28.591 51.0738 28.4723C51.1869 28.2848 51.3328 28.1243 51.5116 27.9908C51.6977 27.8558 51.8949 27.7671 52.1033 27.7248C52.3045 27.6839 52.4722 27.676 52.6065 27.7011C52.6458 27.708 52.6931 27.7321 52.7483 27.7732C52.8089 27.8058 52.8427 27.8363 52.8496 27.8648C52.8565 27.8933 52.8452 27.9405 52.8159 28.0063C52.792 28.0635 52.7666 28.0986 52.7396 28.1115C52.4731 28.2255 52.2571 28.3927 52.0918 28.6133C51.9336 28.8323 51.8403 29.0233 51.8117 29.1861C51.7887 29.3404 51.767 29.6252 51.7468 30.0406C51.7355 30.2747 51.7403 30.513 51.7612 30.7555C51.7875 30.9895 51.8474 31.2839 51.9407 31.6389C51.9421 31.676 51.9505 31.7266 51.966 31.7908C51.9884 31.8834 52.0258 32.0067 52.078 32.1606C52.1337 32.3288 52.1702 32.4485 52.1874 32.5198C52.2735 32.8762 52.2831 33.0874 52.2161 33.1533C52.1149 33.2337 51.9708 33.2929 51.784 33.3308C51.6331 33.3615 51.5066 33.3685 51.4046 33.3518C51.0519 33.2963 50.8368 33.1082 50.7593 32.7874C50.7455 32.7304 50.7388 32.6869 50.7391 32.6569ZM55.4835 32.3102C55.5859 32.11 55.6574 31.9534 55.698 31.8404C55.7512 31.7175 55.8209 31.6472 55.9071 31.6297C55.9934 31.6122 56.071 31.6525 56.1399 31.7507C56.3094 32.0154 56.414 32.2297 56.4536 32.3936C56.4708 32.4649 56.4801 32.5191 56.4816 32.5562C56.4873 32.7046 56.4287 32.8212 56.306 32.906C56.1904 32.9893 56.041 33.042 55.8579 33.0643C55.7932 33.0774 55.6818 33.1 55.5237 33.1321C55.3728 33.1628 55.2347 33.1684 55.1094 33.149C54.9913 33.1281 54.877 33.0765 54.7667 32.9943C54.5264 32.8112 54.3813 32.6164 54.3314 32.4096C53.9284 30.7416 53.6181 29.4885 53.4005 28.6503L52.9351 26.7706C52.8748 26.5211 52.7946 26.2981 52.6943 26.1016C52.6785 26.0675 52.6646 26.0254 52.6525 25.9755C52.5888 25.7118 52.7366 25.5434 53.0959 25.4704C53.3331 25.4223 53.5497 25.4605 53.7457 25.5853C53.9471 25.7014 54.0708 25.8856 54.1167 26.138C54.1864 26.5202 54.2946 27.0928 54.4412 27.8556L54.6865 29.1519C54.9218 30.3753 55.1018 31.2922 55.2267 31.9025C55.2367 31.9753 55.2592 32.0529 55.2943 32.1356C55.3293 32.2182 55.353 32.2694 55.3654 32.2894L55.4835 32.3102ZM61.8047 30.645C61.702 30.6883 61.6004 30.7202 61.4998 30.7406C61.2626 30.7888 61.0252 30.7734 60.7875 30.6946C60.5498 30.6157 60.2912 30.4813 60.0116 30.2913L59.9709 30.5912C59.9392 30.8968 59.9225 31.046 59.9208 31.0389C59.9072 31.3258 59.8016 31.5753 59.604 31.7874C59.4048 31.9924 59.1614 32.1241 58.8739 32.1825C58.6727 32.2234 58.4692 32.2236 58.2634 32.1831C58.0559 32.1355 57.8613 32.0479 57.6797 31.9203C57.2417 31.6054 56.9702 31.2306 56.8652 30.7957C56.7498 30.3182 56.8349 29.7811 57.1206 29.1847C57.2468 28.9272 57.4155 28.736 57.6265 28.6108C57.8447 28.4843 58.1119 28.3889 58.4282 28.3246C58.5791 28.294 58.6791 28.24 58.7283 28.1627C58.7775 28.0854 58.7751 27.9663 58.7211 27.8052C58.477 27.107 58.2835 26.4621 58.1406 25.8704C58.101 25.7065 58.0737 25.469 58.0589 25.1579C58.0532 25.0095 58.0939 24.8816 58.181 24.7742C58.2665 24.6596 58.3846 24.587 58.5355 24.5563C58.5859 24.5461 58.6226 24.5424 58.6459 24.5451C59.0064 24.5392 59.2288 24.7109 59.3132 25.0602L59.4975 25.7294C59.85 27.0637 60.1351 28.0565 60.3527 28.7077C60.4136 28.8973 60.5015 29.0738 60.6164 29.2374C60.7385 29.3996 60.9121 29.6186 61.1371 29.8945C61.1902 29.9585 61.308 30.0093 61.4906 30.047C61.5156 30.0569 61.5558 30.0674 61.6113 30.0786C61.6739 30.0883 61.7231 30.1045 61.7587 30.1272C61.8337 30.1568 61.9094 30.205 61.9859 30.2717C62.0606 30.3313 62.1122 30.3732 62.1406 30.3973C62.0955 30.4289 62.0386 30.4741 61.9698 30.533C61.9066 30.5832 61.8515 30.6205 61.8047 30.645ZM58.3339 29.1514C58.1818 29.302 58.0784 29.5136 58.0236 29.7865C57.9672 30.0522 57.9709 30.3169 58.0346 30.5807C58.1258 30.9585 58.3239 31.2323 58.6289 31.4022C58.7658 30.9706 58.8567 30.582 58.9013 30.2364C58.9443 29.8837 58.9244 29.5362 58.8418 29.1941C58.8056 29.0444 58.7157 28.9841 58.5719 29.0133C58.4929 29.0294 58.4135 29.0754 58.3339 29.1514Z"
    />
</svg>
