<svg
        width="100%"
        height="100%"
        viewBox="0 0 1015 692"
        fill="none"
        xmlns="http://www.w3.org/2000/svg">
    <path d="M124.247 279.671C29.5072 405.575 16 521.913 16 651.597" stroke="#C4750C" stroke-width="32"
          stroke-linecap="round" stroke-linejoin="round"/>
    <path d="M124.251 279.671C144.213 356.871 190.865 489.583 190.865 565.555Z" fill="#D9D9D9"/>
    <path d="M124.251 279.671C144.213 356.871 190.865 489.583 190.865 565.555" stroke="#C4750C" stroke-width="32"
          stroke-linecap="round" stroke-linejoin="round"/>
    <path d="M399.033 462.859C347.297 462.859 259.957 531.847 196.415 565.555" stroke="#C4750C" stroke-width="32"
          stroke-linecap="round" stroke-linejoin="round"/>
    <path d="M409.533 461.405C418.315 461.871 426.783 464.887 435.289 467.127" stroke="#C4750C" stroke-width="32"
          stroke-linecap="round" stroke-linejoin="round"/>
    <path d="M401.799 482.287C408.423 482.967 414.811 487.355 421.227 490.615" stroke="#C4750C" stroke-width="32"
          stroke-linecap="round" stroke-linejoin="round"/>
    <path d="M597.835 249.459C601.875 222.521 594.039 202.475 579.405 193.751C560.827 182.675 532.357 187.285 508.345 214.281C388.603 348.893 526.727 468.859 592.565 268.123"
          stroke="#C4750C" stroke-width="32" stroke-linecap="round" stroke-linejoin="round"/>
    <path d="M463.789 390.695C432.891 437.919 403.259 494.041 372.197 540.575" stroke="#C4750C" stroke-width="32"
          stroke-linecap="round" stroke-linejoin="round"/>
    <path d="M301.415 11.3773C309.671 14.5261 313.811 23.7719 310.663 32.0285C307.515 40.2849 298.269 44.4255 290.013 41.2767L301.415 11.3773ZM327.333 45.0291C319.759 40.4771 317.309 30.6471 321.861 23.0733C326.413 15.4993 336.243 13.0495 343.817 17.6015L327.333 45.0291ZM150.489 172.539C166.081 235.009 196.223 260.593 226.327 267.273C257.825 274.263 295.045 261.971 326.363 236.767C357.581 211.641 379.891 176.047 383.449 141.259C386.855 107.939 373.391 72.7111 327.333 45.0291L343.817 17.6015C399.471 51.0507 420.069 97.6987 415.283 144.513C410.645 189.859 382.507 232.657 346.425 261.697C310.441 290.657 263.507 308.301 219.395 298.513C173.887 288.415 136.967 250.509 119.441 180.287L150.489 172.539ZM290.013 41.2767C238.413 21.5981 199.713 35.3907 175.755 61.9575C150.937 89.4781 140.465 132.379 150.489 172.539L119.441 180.287C107.03 130.56 119.528 76.5239 151.991 40.5271C185.313 3.57652 238.203 -12.7301 301.415 11.3773L290.013 41.2767Z"
          fill="#C4750C" fill-opacity="0.9"/>
    <path d="M321.075 176.173C322.159 171.599 323.501 171.079 324.665 166.621" stroke="#C4750C" stroke-width="32"
          stroke-linecap="round" stroke-linejoin="round"/>
    <path d="M551.359 599.75V668H538.422L509.406 620.656V668H496.516V599.75H509.406L538.516 647.141V599.75H551.359ZM619.75 632.141V635.656C619.75 640.812 619.062 645.453 617.688 649.578C616.312 653.672 614.359 657.156 611.828 660.031C609.297 662.906 606.281 665.109 602.781 666.641C599.281 668.172 595.391 668.938 591.109 668.938C586.891 668.938 583.016 668.172 579.484 666.641C575.984 665.109 572.953 662.906 570.391 660.031C567.828 657.156 565.844 653.672 564.438 649.578C563.031 645.453 562.328 640.812 562.328 635.656V632.141C562.328 626.953 563.031 622.312 564.438 618.219C565.844 614.125 567.812 610.641 570.344 607.766C572.875 604.859 575.891 602.641 579.391 601.109C582.922 599.578 586.797 598.812 591.016 598.812C595.297 598.812 599.188 599.578 602.688 601.109C606.188 602.641 609.203 604.859 611.734 607.766C614.297 610.641 616.266 614.125 617.641 618.219C619.047 622.312 619.75 626.953 619.75 632.141ZM606.719 635.656V632.047C606.719 628.328 606.375 625.062 605.688 622.25C605 619.406 603.984 617.016 602.641 615.078C601.297 613.141 599.641 611.688 597.672 610.719C595.703 609.719 593.484 609.219 591.016 609.219C588.516 609.219 586.297 609.719 584.359 610.719C582.453 611.688 580.828 613.141 579.484 615.078C578.141 617.016 577.109 619.406 576.391 622.25C575.703 625.062 575.359 628.328 575.359 632.047V635.656C575.359 639.344 575.703 642.609 576.391 645.453C577.109 648.297 578.141 650.703 579.484 652.672C580.859 654.609 582.516 656.078 584.453 657.078C586.391 658.078 588.609 658.578 591.109 658.578C593.609 658.578 595.828 658.078 597.766 657.078C599.703 656.078 601.328 654.609 602.641 652.672C603.984 650.703 605 648.297 605.688 645.453C606.375 642.609 606.719 639.344 606.719 635.656ZM657.25 599.75V668H644.406V599.75H657.25ZM678.438 599.75V609.922H623.453V599.75H678.438ZM721.469 599.75V668H708.578V599.75H721.469ZM748.984 629.234V639.406H718.094V629.234H748.984ZM752.594 599.75V609.922H718.094V599.75H752.594ZM816.625 632.141V635.656C816.625 640.812 815.938 645.453 814.562 649.578C813.188 653.672 811.234 657.156 808.703 660.031C806.172 662.906 803.156 665.109 799.656 666.641C796.156 668.172 792.266 668.938 787.984 668.938C783.766 668.938 779.891 668.172 776.359 666.641C772.859 665.109 769.828 662.906 767.266 660.031C764.703 657.156 762.719 653.672 761.312 649.578C759.906 645.453 759.203 640.812 759.203 635.656V632.141C759.203 626.953 759.906 622.312 761.312 618.219C762.719 614.125 764.688 610.641 767.219 607.766C769.75 604.859 772.766 602.641 776.266 601.109C779.797 599.578 783.672 598.812 787.891 598.812C792.172 598.812 796.062 599.578 799.562 601.109C803.062 602.641 806.078 604.859 808.609 607.766C811.172 610.641 813.141 614.125 814.516 618.219C815.922 622.312 816.625 626.953 816.625 632.141ZM803.594 635.656V632.047C803.594 628.328 803.25 625.062 802.562 622.25C801.875 619.406 800.859 617.016 799.516 615.078C798.172 613.141 796.516 611.688 794.547 610.719C792.578 609.719 790.359 609.219 787.891 609.219C785.391 609.219 783.172 609.719 781.234 610.719C779.328 611.688 777.703 613.141 776.359 615.078C775.016 617.016 773.984 619.406 773.266 622.25C772.578 625.062 772.234 628.328 772.234 632.047V635.656C772.234 639.344 772.578 642.609 773.266 645.453C773.984 648.297 775.016 650.703 776.359 652.672C777.734 654.609 779.391 656.078 781.328 657.078C783.266 658.078 785.484 658.578 787.984 658.578C790.484 658.578 792.703 658.078 794.641 657.078C796.578 656.078 798.203 654.609 799.516 652.672C800.859 650.703 801.875 648.297 802.562 645.453C803.25 642.609 803.594 639.344 803.594 635.656ZM865.516 599.75H878.406V645.078C878.406 650.297 877.281 654.688 875.031 658.25C872.781 661.781 869.719 664.453 865.844 666.266C861.969 668.047 857.562 668.938 852.625 668.938C847.625 668.938 843.172 668.047 839.266 666.266C835.359 664.453 832.297 661.781 830.078 658.25C827.859 654.688 826.75 650.297 826.75 645.078V599.75H839.641V645.078C839.641 648.266 840.172 650.875 841.234 652.906C842.297 654.906 843.797 656.391 845.734 657.359C847.672 658.328 849.969 658.812 852.625 658.812C855.312 658.812 857.609 658.328 859.516 657.359C861.453 656.391 862.938 654.906 863.969 652.906C865 650.875 865.516 648.266 865.516 645.078V599.75ZM945.484 599.75V668H932.547L903.531 620.656V668H890.641V599.75H903.531L932.641 647.141V599.75H945.484ZM979 668H964.281L964.375 657.875H979C982.969 657.875 986.297 657 988.984 655.25C991.672 653.469 993.703 650.922 995.078 647.609C996.453 644.266 997.141 640.266 997.141 635.609V632.094C997.141 628.5 996.75 625.328 995.969 622.578C995.188 619.828 994.031 617.516 992.5 615.641C991 613.766 989.141 612.344 986.922 611.375C984.703 610.406 982.156 609.922 979.281 609.922H964V599.75H979.281C983.844 599.75 988 600.516 991.75 602.047C995.531 603.578 998.797 605.781 1001.55 608.656C1004.33 611.5 1006.45 614.906 1007.92 618.875C1009.42 622.844 1010.17 627.281 1010.17 632.188V635.609C1010.17 640.484 1009.42 644.922 1007.92 648.922C1006.45 652.891 1004.33 656.297 1001.55 659.141C998.797 661.984 995.516 664.172 991.703 665.703C987.891 667.234 983.656 668 979 668ZM971.5 599.75V668H958.609V599.75H971.5Z"
          fill="currentColor"/>
</svg>
