<svg
        width="100%"
        height="100%"
        viewBox="0 0 1276 692"
        fill="none"
        xmlns="http://www.w3.org/2000/svg">
    <path d="M124.247 279.671C29.5072 405.575 16 521.913 16 651.597" stroke="#C4750C" stroke-width="32"
          stroke-linecap="round" stroke-linejoin="round"/>
    <path d="M124.251 279.671C144.213 356.871 190.865 489.583 190.865 565.555Z" fill="#C4750C"/>
    <path d="M124.251 279.671C144.213 356.871 190.865 489.583 190.865 565.555" stroke="#C4750C" stroke-width="32"
          stroke-linecap="round" stroke-linejoin="round"/>
    <path d="M399.033 462.859C347.297 462.859 259.957 531.847 196.415 565.555" stroke="#C4750C" stroke-width="32"
          stroke-linecap="round" stroke-linejoin="round"/>
    <path d="M409.533 461.405C418.315 461.871 426.783 464.887 435.289 467.127" stroke="#C4750C" stroke-width="32"
          stroke-linecap="round" stroke-linejoin="round"/>
    <path d="M401.799 482.287C408.423 482.967 414.811 487.355 421.227 490.615" stroke="#C4750C" stroke-width="32"
          stroke-linecap="round" stroke-linejoin="round"/>
    <path d="M597.835 249.459C601.875 222.521 594.039 202.475 579.405 193.751C560.827 182.675 532.357 187.285 508.345 214.281C388.603 348.893 526.727 468.859 592.565 268.123"
          stroke="#C4750C" stroke-width="32" stroke-linecap="round" stroke-linejoin="round"/>
    <path d="M463.789 390.695C432.891 437.919 403.259 494.041 372.197 540.575" stroke="#C4750C" stroke-width="32"
          stroke-linecap="round" stroke-linejoin="round"/>
    <path d="M301.415 11.3773C309.671 14.5261 313.811 23.7719 310.663 32.0285C307.515 40.2849 298.269 44.4255 290.013 41.2767L301.415 11.3773ZM327.333 45.0291C319.759 40.4771 317.309 30.6471 321.861 23.0733C326.413 15.4993 336.243 13.0495 343.817 17.6015L327.333 45.0291ZM150.489 172.539C166.081 235.009 196.223 260.593 226.327 267.273C257.825 274.263 295.045 261.971 326.363 236.767C357.581 211.641 379.891 176.047 383.449 141.259C386.855 107.939 373.391 72.7111 327.333 45.0291L343.817 17.6015C399.471 51.0507 420.069 97.6987 415.283 144.513C410.645 189.859 382.507 232.657 346.425 261.697C310.441 290.657 263.507 308.301 219.395 298.513C173.887 288.415 136.967 250.509 119.441 180.287L150.489 172.539ZM290.013 41.2767C238.413 21.5981 199.713 35.3907 175.755 61.9575C150.937 89.4781 140.465 132.379 150.489 172.539L119.441 180.287C107.03 130.56 119.528 76.5239 151.991 40.5271C185.313 3.57652 238.203 -12.7301 301.415 11.3773L290.013 41.2767Z"
          fill="#C4750C"/>
    <path d="M321.075 176.173C322.159 171.599 323.501 171.079 324.665 166.621" stroke="#C4750C" stroke-width="32"
          stroke-linecap="round" stroke-linejoin="round"/>
    <path d="M522.766 643.109H505.188V632.984H522.766C525.641 632.984 527.969 632.516 529.75 631.578C531.562 630.609 532.891 629.297 533.734 627.641C534.578 625.953 535 624.031 535 621.875C535 619.781 534.578 617.828 533.734 616.016C532.891 614.203 531.562 612.734 529.75 611.609C527.969 610.484 525.641 609.922 522.766 609.922H509.406V668H496.516V599.75H522.766C528.078 599.75 532.609 600.703 536.359 602.609C540.141 604.484 543.016 607.094 544.984 610.438C546.984 613.75 547.984 617.531 547.984 621.781C547.984 626.188 546.984 629.984 544.984 633.172C543.016 636.359 540.141 638.812 536.359 640.531C532.609 642.25 528.078 643.109 522.766 643.109ZM577.844 610.109L558.391 668H544.75L570.25 599.75H578.969L577.844 610.109ZM594.109 668L574.562 610.109L573.391 599.75H582.156L607.797 668H594.109ZM593.219 642.641V652.812H556.609V642.641H593.219ZM667.234 632.703V659.281C666.234 660.562 664.656 661.953 662.5 663.453C660.375 664.953 657.594 666.25 654.156 667.344C650.719 668.406 646.5 668.938 641.5 668.938C637.156 668.938 633.188 668.219 629.594 666.781C626 665.312 622.906 663.172 620.312 660.359C617.719 657.547 615.719 654.109 614.312 650.047C612.906 645.984 612.203 641.344 612.203 636.125V631.625C612.203 626.406 612.859 621.766 614.172 617.703C615.516 613.641 617.422 610.203 619.891 607.391C622.391 604.578 625.375 602.438 628.844 600.969C632.344 599.5 636.25 598.766 640.562 598.766C646.344 598.766 651.094 599.719 654.812 601.625C658.562 603.531 661.438 606.156 663.438 609.5C665.438 612.812 666.688 616.625 667.188 620.938H654.625C654.281 618.562 653.594 616.484 652.562 614.703C651.531 612.891 650.062 611.484 648.156 610.484C646.281 609.453 643.844 608.938 640.844 608.938C638.312 608.938 636.078 609.438 634.141 610.438C632.203 611.438 630.578 612.891 629.266 614.797C627.953 616.703 626.953 619.062 626.266 621.875C625.609 624.688 625.281 627.906 625.281 631.531V636.125C625.281 639.781 625.656 643.031 626.406 645.875C627.156 648.688 628.234 651.062 629.641 653C631.078 654.906 632.844 656.359 634.938 657.359C637.062 658.328 639.469 658.812 642.156 658.812C644.594 658.812 646.609 658.609 648.203 658.203C649.828 657.766 651.125 657.25 652.094 656.656C653.062 656.062 653.812 655.484 654.344 654.922V642.125H640.797V632.703H667.234ZM724.656 657.875V668H688.375V657.875H724.656ZM692.312 599.75V668H679.422V599.75H692.312ZM719.922 627.922V637.812H688.375V627.922H719.922ZM724.516 599.75V609.922H688.375V599.75H724.516ZM812.359 599.75V668H799.422L770.406 620.656V668H757.516V599.75H770.406L799.516 647.141V599.75H812.359ZM880.75 632.141V635.656C880.75 640.812 880.062 645.453 878.688 649.578C877.312 653.672 875.359 657.156 872.828 660.031C870.297 662.906 867.281 665.109 863.781 666.641C860.281 668.172 856.391 668.938 852.109 668.938C847.891 668.938 844.016 668.172 840.484 666.641C836.984 665.109 833.953 662.906 831.391 660.031C828.828 657.156 826.844 653.672 825.438 649.578C824.031 645.453 823.328 640.812 823.328 635.656V632.141C823.328 626.953 824.031 622.312 825.438 618.219C826.844 614.125 828.812 610.641 831.344 607.766C833.875 604.859 836.891 602.641 840.391 601.109C843.922 599.578 847.797 598.812 852.016 598.812C856.297 598.812 860.188 599.578 863.688 601.109C867.188 602.641 870.203 604.859 872.734 607.766C875.297 610.641 877.266 614.125 878.641 618.219C880.047 622.312 880.75 626.953 880.75 632.141ZM867.719 635.656V632.047C867.719 628.328 867.375 625.062 866.688 622.25C866 619.406 864.984 617.016 863.641 615.078C862.297 613.141 860.641 611.688 858.672 610.719C856.703 609.719 854.484 609.219 852.016 609.219C849.516 609.219 847.297 609.719 845.359 610.719C843.453 611.688 841.828 613.141 840.484 615.078C839.141 617.016 838.109 619.406 837.391 622.25C836.703 625.062 836.359 628.328 836.359 632.047V635.656C836.359 639.344 836.703 642.609 837.391 645.453C838.109 648.297 839.141 650.703 840.484 652.672C841.859 654.609 843.516 656.078 845.453 657.078C847.391 658.078 849.609 658.578 852.109 658.578C854.609 658.578 856.828 658.078 858.766 657.078C860.703 656.078 862.328 654.609 863.641 652.672C864.984 650.703 866 648.297 866.688 645.453C867.375 642.609 867.719 639.344 867.719 635.656ZM918.25 599.75V668H905.406V599.75H918.25ZM939.438 599.75V609.922H884.453V599.75H939.438ZM982.469 599.75V668H969.578V599.75H982.469ZM1009.98 629.234V639.406H979.094V629.234H1009.98ZM1013.59 599.75V609.922H979.094V599.75H1013.59ZM1077.62 632.141V635.656C1077.62 640.812 1076.94 645.453 1075.56 649.578C1074.19 653.672 1072.23 657.156 1069.7 660.031C1067.17 662.906 1064.16 665.109 1060.66 666.641C1057.16 668.172 1053.27 668.938 1048.98 668.938C1044.77 668.938 1040.89 668.172 1037.36 666.641C1033.86 665.109 1030.83 662.906 1028.27 660.031C1025.7 657.156 1023.72 653.672 1022.31 649.578C1020.91 645.453 1020.2 640.812 1020.2 635.656V632.141C1020.2 626.953 1020.91 622.312 1022.31 618.219C1023.72 614.125 1025.69 610.641 1028.22 607.766C1030.75 604.859 1033.77 602.641 1037.27 601.109C1040.8 599.578 1044.67 598.812 1048.89 598.812C1053.17 598.812 1057.06 599.578 1060.56 601.109C1064.06 602.641 1067.08 604.859 1069.61 607.766C1072.17 610.641 1074.14 614.125 1075.52 618.219C1076.92 622.312 1077.62 626.953 1077.62 632.141ZM1064.59 635.656V632.047C1064.59 628.328 1064.25 625.062 1063.56 622.25C1062.88 619.406 1061.86 617.016 1060.52 615.078C1059.17 613.141 1057.52 611.688 1055.55 610.719C1053.58 609.719 1051.36 609.219 1048.89 609.219C1046.39 609.219 1044.17 609.719 1042.23 610.719C1040.33 611.688 1038.7 613.141 1037.36 615.078C1036.02 617.016 1034.98 619.406 1034.27 622.25C1033.58 625.062 1033.23 628.328 1033.23 632.047V635.656C1033.23 639.344 1033.58 642.609 1034.27 645.453C1034.98 648.297 1036.02 650.703 1037.36 652.672C1038.73 654.609 1040.39 656.078 1042.33 657.078C1044.27 658.078 1046.48 658.578 1048.98 658.578C1051.48 658.578 1053.7 658.078 1055.64 657.078C1057.58 656.078 1059.2 654.609 1060.52 652.672C1061.86 650.703 1062.88 648.297 1063.56 645.453C1064.25 642.609 1064.59 639.344 1064.59 635.656ZM1126.52 599.75H1139.41V645.078C1139.41 650.297 1138.28 654.688 1136.03 658.25C1133.78 661.781 1130.72 664.453 1126.84 666.266C1122.97 668.047 1118.56 668.938 1113.62 668.938C1108.62 668.938 1104.17 668.047 1100.27 666.266C1096.36 664.453 1093.3 661.781 1091.08 658.25C1088.86 654.688 1087.75 650.297 1087.75 645.078V599.75H1100.64V645.078C1100.64 648.266 1101.17 650.875 1102.23 652.906C1103.3 654.906 1104.8 656.391 1106.73 657.359C1108.67 658.328 1110.97 658.812 1113.62 658.812C1116.31 658.812 1118.61 658.328 1120.52 657.359C1122.45 656.391 1123.94 654.906 1124.97 652.906C1126 650.875 1126.52 648.266 1126.52 645.078V599.75ZM1206.48 599.75V668H1193.55L1164.53 620.656V668H1151.64V599.75H1164.53L1193.64 647.141V599.75H1206.48ZM1240 668H1225.28L1225.38 657.875H1240C1243.97 657.875 1247.3 657 1249.98 655.25C1252.67 653.469 1254.7 650.922 1256.08 647.609C1257.45 644.266 1258.14 640.266 1258.14 635.609V632.094C1258.14 628.5 1257.75 625.328 1256.97 622.578C1256.19 619.828 1255.03 617.516 1253.5 615.641C1252 613.766 1250.14 612.344 1247.92 611.375C1245.7 610.406 1243.16 609.922 1240.28 609.922H1225V599.75H1240.28C1244.84 599.75 1249 600.516 1252.75 602.047C1256.53 603.578 1259.8 605.781 1262.55 608.656C1265.33 611.5 1267.45 614.906 1268.92 618.875C1270.42 622.844 1271.17 627.281 1271.17 632.188V635.609C1271.17 640.484 1270.42 644.922 1268.92 648.922C1267.45 652.891 1265.33 656.297 1262.55 659.141C1259.8 661.984 1256.52 664.172 1252.7 665.703C1248.89 667.234 1244.66 668 1240 668ZM1232.5 599.75V668H1219.61V599.75H1232.5Z"
          fill="currentColor"/>
</svg>
